# xmcd
#
# Track frame offsets: 
#        150
#        10583
#        20734
#        31242
#        41739
#        54680
#        65800
#        77956
#        87383
#        97643
#        108283
#        117972
#        126661
#        136447
#        148303
#        159585
#        166417
#        177921
#        184708
#
# Disc length: 2575 seconds
#
# Revision: 0
# Processed by: cddbd v1.5.1PL2 Copyright (c) Steve Scherf et al.
# Submitted via: ExactAudioCopy v0.95b4
#
DISCID=0c0a0d13
DTITLE=Waylon Jennings - Only Daddy That'll Walk The Line
DYEAR=1900
DGENRE=Country
TTITLE0=Only Daddy That'll Walk The Line
TTITLE1=Yours Love
TTITLE2=Mental Revenge
TTITLE3=Walk On Out Of My Mind
TTITLE4=Love Of The Common People
TTITLE5=Big Mamou
TTITLE6=Don't Think Twice, It's All Right
TTITLE7=Never Again
TTITLE8=White Lightning
TTITLE9=Burning Memories
TTITLE10=My Baby Walks All Over Me
TTITLE11=Jole Blon
TTITLE12=When Sin Stops
TTITLE13=Crying
TTITLE14=Sally Was A Good Old Girl
TTITLE15=Another Blue Day
TTITLE16=Dream Baby
TTITLE17=It's So Easy
TTITLE18=Love's Gonna Live Here
EXTD=
EXTT0=
EXTT1=
EXTT2=
EXTT3=
EXTT4=
EXTT5=
EXTT6=
EXTT7=
EXTT8=
EXTT9=
EXTT10=
EXTT11=
EXTT12=
EXTT13=
EXTT14=
EXTT15=
EXTT16=
EXTT17=
EXTT18=
PLAYORDER=
